<svg xmlns="http://www.w3.org/2000/svg" viewBox="0 0 164 47.59"><title>Logo_BrotmanBaty_Reverse</title><rect x="46.4" y="28.28" width="1.03" height="7.02" style="fill:#fff"/><path d="M57.23,32c0,1,0,2,0,2h0s-.52-.73-1.05-1.44l-3.13-4.2H52.3v7h.82V31.62c0-1.12,0-2,0-2h0s.45.64,1.06,1.47l3.11,4.2h.78v-7h-.83Z" style="fill:#fff"/><path d="M65.48,31.3c-.94-.28-1.91-.52-1.91-1.29s.65-1.14,1.57-1.14a1.68,1.68,0,0,1,1.76,1.37l.78-.21a2.42,2.42,0,0,0-2.51-1.88c-1.4,0-2.43.81-2.43,1.91s1.18,1.57,2,1.82c1,.31,2.21.52,2.21,1.54,0,.74-.63,1.29-1.68,1.29a1.79,1.79,0,0,1-1.91-1.54l-.79.22a2.52,2.52,0,0,0,2.67,2.06c1.55,0,2.57-.86,2.57-2C67.79,32,66.46,31.59,65.48,31.3Z" style="fill:#fff"/><polygon points="71.42 29.05 73.77 29.05 73.77 35.3 74.58 35.3 74.58 29.05 76.94 29.05 76.94 28.28 71.42 28.28 71.42 29.05" style="fill:#fff"/><rect x="81.3" y="28.28" width="1.03" height="7.02" style="fill:#fff"/><polygon points="86.48 29.05 88.83 29.05 88.83 35.3 89.64 35.3 89.64 29.05 92 29.05 92 28.28 86.48 28.28 86.48 29.05" style="fill:#fff"/><path d="M101.11,32.4c0,1.52-.7,2.28-2.06,2.28S97,33.92,97,32.4V28.28h-.82V32.4c0,2,1,3.06,2.88,3.06s2.88-1.07,2.88-3.06V28.29h-.82Z" style="fill:#fff"/><polygon points="106.11 29.05 108.45 29.05 108.45 35.3 109.26 35.3 109.26 29.05 111.62 29.05 111.62 28.28 106.11 28.28 106.11 29.05" style="fill:#fff"/><polygon points="115.98 35.3 120.55 35.3 120.55 34.53 116.8 34.53 116.8 31.95 119.91 31.95 119.91 31.22 116.8 31.22 116.8 29.05 120.55 29.05 120.55 28.28 115.98 28.28 115.98 35.3" style="fill:#fff"/><path d="M54.21,20.16c0-1.45-.6-2.49-1.83-2.75v0a2.42,2.42,0,0,0,1.69-2.25c0-1.61-1.33-2.8-3.28-2.8H46.4V23.47h4C52.91,23.47,54.21,22.07,54.21,20.16Zm-6-6.33h2.27c1.12,0,1.86.61,1.86,1.52a1.67,1.67,0,0,1-1.86,1.53H48.17ZM50.28,22H48.17V18.24h2.28a1.78,1.78,0,0,1,1.93,1.87A1.9,1.9,0,0,1,50.28,22Z" style="fill:#fff"/><path d="M133.24,17.41v0a2.42,2.42,0,0,0,1.69-2.25c0-1.61-1.33-2.8-3.28-2.8h-4.39V23.47h4c2.47,0,3.77-1.4,3.77-3.31C135.07,18.71,134.47,17.67,133.24,17.41ZM129,13.83h2.27c1.12,0,1.86.61,1.86,1.52a1.67,1.67,0,0,1-1.86,1.53H129ZM131.15,22H129V18.24h2.29a1.78,1.78,0,0,1,1.93,1.87,1.91,1.91,0,0,1-2.1,1.87Z" style="fill:#fff"/><path d="M61.59,19.16a3.24,3.24,0,0,0,2.22-3.22c0-2.2-1.6-3.6-4.28-3.6H55.9V23.47h1.77v-4h1.87a2,2,0,0,0,.35,0l2.36,4h2Zm-1.85-1.23H57.66V14h2.08c1.45,0,2.24.81,2.24,2a2,2,0,0,1-2.23,2Z" style="fill:#fff"/><path d="M76.41,17.9a5.78,5.78,0,1,0-11.56,0,5.78,5.78,0,1,0,11.56,0ZM70.62,22a3.86,3.86,0,0,1-4-4.06,4,4,0,1,1,7.92,0A3.86,3.86,0,0,1,70.62,22Z" style="fill:#fff"/><polygon points="76.27 12.34 76.27 13.99 79.87 13.99 79.87 23.47 81.62 23.47 81.62 13.99 85.52 13.99 84.52 12.34 76.27 12.34" style="fill:#fff"/><path d="M109.15,23.47l-4.7-11.13h-1.64l-4.7,11.13H100l1-2.53h5.2l1,2.53Zm-7.49-4.07,1.44-3.48c.24-.61.51-1.45.52-1.45h0s.29.84.52,1.45l1.44,3.48Z" style="fill:#fff"/><path d="M112.28,15.26s1,1.39,2,2.74l4.06,5.47H120V12.34h-1.77v4.74c0,1.74,0,3.38,0,3.38h0s-1.14-1.55-1.92-2.64l-4.1-5.48h-1.65V23.47h1.76V18.75c0-2,0-3.49,0-3.49Z" style="fill:#fff"/><path d="M140.35,12.36,135.64,23.5h1.9l1-2.53h5.2l1,2.53h1.9L142,12.36Zm-1.14,7.06,1.43-3.48c.24-.6.51-1.45.53-1.45h0s.29.85.53,1.45l1.43,3.48Z" style="fill:#fff"/><polygon points="145.45 12.34 145.45 13.99 149.04 13.99 149.04 23.47 150.79 23.47 150.79 13.99 153.39 13.99 152.18 12.34 145.45 12.34" style="fill:#fff"/><path d="M162,12.34l-2.53,3.41c-.29.4-.62.86-.64.86h0s-.35-.46-.65-.86l-2.53-3.41h-2l4.3,5.85v5.28h1.75V18.19L164,12.34Z" style="fill:#fff"/><path d="M96.73,23.47V12.34H95.08s-3.6,6.17-3.61,6.17h0s-3.54-6.17-3.54-6.17H86l5,8.38h.92s3.14-5.42,3.15-5.42h0S95,23.47,95,23.47Z" style="fill:#fff"/><polygon points="87.9 18.01 86.17 15.13 86.17 23.47 87.91 23.47 87.9 18.01" style="fill:#fff"/><path d="M32.17,22l-.3.27a14.59,14.59,0,0,1-1.53,1.19h0l-.07.05a15,15,0,0,1-2.07,1.16l-.57.26.48.4a9.49,9.49,0,0,1,3.39,7.31c0,.2,0,.4,0,.6s0,.41-.06.61a9.33,9.33,0,0,1-1.51,4,10,10,0,0,1-1.71,1.91c-.22.18-.44.36-.67.53a9.91,9.91,0,0,1-5.76,1.85H5.18V28.79a4.62,4.62,0,0,1,4-4.56,57.33,57.33,0,0,1,10.86-.66h1.69c8.81,0,12-7.16,12-12A11.61,11.61,0,0,0,22.17,0H0V21.48A7.78,7.78,0,0,1,2.49,19a10.84,10.84,0,0,1,2.65-1.29V4.89H21a7.22,7.22,0,0,1,5.12,2.16,6.7,6.7,0,0,1,1.22,1.67A6.63,6.63,0,0,1,28.11,12a7,7,0,0,1-7,6.84l-1,0h-1l-1.56,0h-2.2c-.33,0-.65,0-1,0l-.68,0-.52,0c-.81,0-1.56.07-2.26.13s-1.6.16-2.3.28l-1,.19L7,19.71l-.29.08L6.17,20a9.51,9.51,0,0,0-2.88,1.49A8.22,8.22,0,0,0,0,28.29v19.3H21.13l.4,0h0a15.14,15.14,0,0,0,10.9-25.21Z" style="fill:#fff"/></svg>