<svg xmlns="http://www.w3.org/2000/svg" viewBox="0 0 154.84 40"><title>SFS_Logo_Color_RGB</title><path d="M92.68,14.42a2,2,0,0,0-.69-1.6,7.05,7.05,0,0,0-2.43-1.14A13.9,13.9,0,0,1,85,9.57a4,4,0,0,1-1.54-3.33,4.19,4.19,0,0,1,1.74-3.46,7.09,7.09,0,0,1,4.44-1.34,7,7,0,0,1,4.6,1.44A4.51,4.51,0,0,1,96,6.67l0,.07H92.59a2.5,2.5,0,0,0-.78-2,3.2,3.2,0,0,0-2.19-.7,2.92,2.92,0,0,0-2,.62A2,2,0,0,0,87,6.25a1.71,1.71,0,0,0,.75,1.44,10.12,10.12,0,0,0,2.62,1.19A11.42,11.42,0,0,1,94.65,11a4.3,4.3,0,0,1,1.49,3.41,4.11,4.11,0,0,1-1.73,3.49,7.44,7.44,0,0,1-4.57,1.28,8.18,8.18,0,0,1-4.77-1.38,4.57,4.57,0,0,1-1.93-4.13l0-.07h3.35a2.7,2.7,0,0,0,.9,2.24,3.73,3.73,0,0,0,2.43.73A3.39,3.39,0,0,0,92,16,1.9,1.9,0,0,0,92.68,14.42Z" style="fill:#1baa4b"/><path d="M103.1,19.16a5.72,5.72,0,0,1-4.47-1.76A6.4,6.4,0,0,1,97,12.88v-.47A7,7,0,0,1,98.58,7.7a5.31,5.31,0,0,1,4.29-1.83,5,5,0,0,1,4,1.58,6.27,6.27,0,0,1,1.38,4.26v1.78h-7.63l0,.08a3.45,3.45,0,0,0,.8,2.12,2.66,2.66,0,0,0,2.12.82,7,7,0,0,0,2-.24,7.45,7.45,0,0,0,1.68-.72l.93,2.13A6.41,6.41,0,0,1,106,18.74,9.32,9.32,0,0,1,103.1,19.16Zm-.23-10.62a1.93,1.93,0,0,0-1.6.71,3.65,3.65,0,0,0-.68,1.9l0,.06h4.22V11a3,3,0,0,0-.47-1.77A1.69,1.69,0,0,0,102.87,8.54Z" style="fill:#1baa4b"/><path d="M117.37,18.91A6.67,6.67,0,0,1,117,18a6.42,6.42,0,0,1-.19-1,4.87,4.87,0,0,1-1.41,1.55,3.52,3.52,0,0,1-2.08.61,4.31,4.31,0,0,1-3.1-1,3.7,3.7,0,0,1-1.09-2.83,3.36,3.36,0,0,1,1.45-2.91,7.25,7.25,0,0,1,4.23-1h1.94v-1a2,2,0,0,0-.49-1.44,1.89,1.89,0,0,0-1.44-.51,1.87,1.87,0,0,0-1.29.41,1.43,1.43,0,0,0-.46,1.12h-3.32l0-.07a3.27,3.27,0,0,1,1.42-2.8,6.15,6.15,0,0,1,3.91-1.18A5.75,5.75,0,0,1,118.82,7a4.06,4.06,0,0,1,1.42,3.33v5.29a10.05,10.05,0,0,0,.14,1.69,8.14,8.14,0,0,0,.43,1.57Zm-3.16-2.3a2.94,2.94,0,0,0,1.61-.45,2.41,2.41,0,0,0,1-1.05V13.3h-1.94a2.31,2.31,0,0,0-1.66.55,1.78,1.78,0,0,0-.57,1.34,1.33,1.33,0,0,0,.42,1A1.65,1.65,0,0,0,114.21,16.61Z" style="fill:#1baa4b"/><path d="M126.08,3V6.11h2.16V8.54h-2.16v6.52a1.48,1.48,0,0,0,.31,1.06,1.13,1.13,0,0,0,.83.32,3.28,3.28,0,0,0,.47,0,3.53,3.53,0,0,0,.46-.1l.28,2.5a7.9,7.9,0,0,1-1,.26,5.93,5.93,0,0,1-1.07.09,3.69,3.69,0,0,1-2.75-1,4.32,4.32,0,0,1-1-3.11V8.54h-1.87V6.11h1.87V3Z" style="fill:#1baa4b"/><path d="M134.45,3V6.11h2.16V8.54h-2.16v6.52a1.48,1.48,0,0,0,.31,1.06,1.11,1.11,0,0,0,.82.32,3.43,3.43,0,0,0,.48,0,3.92,3.92,0,0,0,.46-.1l.28,2.5a8.35,8.35,0,0,1-1,.26,5.93,5.93,0,0,1-1.07.09,3.69,3.69,0,0,1-2.75-1,4.32,4.32,0,0,1-1-3.11V8.54h-1.87V6.11H131V3Z" style="fill:#1baa4b"/><path d="M141.77,18.91h-3.46V.46h3.46Z" style="fill:#1baa4b"/><path d="M149.73,19.16a5.76,5.76,0,0,1-4.48-1.76,6.45,6.45,0,0,1-1.61-4.52v-.47a7,7,0,0,1,1.57-4.71,5.31,5.31,0,0,1,4.29-1.83,5,5,0,0,1,4,1.58,6.27,6.27,0,0,1,1.38,4.26v1.78h-7.63l0,.08a3.39,3.39,0,0,0,.8,2.12,2.65,2.65,0,0,0,2.12.82,7,7,0,0,0,2-.24,7.45,7.45,0,0,0,1.68-.72l.93,2.13a6.51,6.51,0,0,1-2.08,1.06A9.37,9.37,0,0,1,149.73,19.16ZM149.5,8.54a1.93,1.93,0,0,0-1.6.71,3.56,3.56,0,0,0-.68,1.9l0,.06h4.21V11A3,3,0,0,0,151,9.18,1.7,1.7,0,0,0,149.5,8.54Z" style="fill:#1baa4b"/><path d="M90.43,29.85H84.36V36H83.27V22.83h8.08v.93h-7v5.16h6.07Z" style="fill:#1baa4b"/><path d="M94.1,36H93V21.89H94.1Z" style="fill:#1baa4b"/><path d="M102.94,34.44a3.39,3.39,0,0,1-1.27,1.33,3.77,3.77,0,0,1-1.88.46,3,3,0,0,1-2.43-1,5,5,0,0,1-.88-3.27V26.23h1.09v5.7a4.16,4.16,0,0,0,.61,2.57,2.09,2.09,0,0,0,1.74.78,3.22,3.22,0,0,0,2-.54,2.93,2.93,0,0,0,1-1.5v-7H104V36h-1Z" style="fill:#1baa4b"/><path d="M119.07,32.83a2.07,2.07,0,0,0-.81-1.68,8.13,8.13,0,0,0-2.74-1.24,9.09,9.09,0,0,1-3.21-1.45,2.82,2.82,0,0,1-1.1-2.35,3,3,0,0,1,1.23-2.49,4.92,4.92,0,0,1,3.15-1,4.61,4.61,0,0,1,3.23,1.11A3.47,3.47,0,0,1,120,26.54l0,.06h-1a2.81,2.81,0,0,0-1-2.17,3.51,3.51,0,0,0-2.44-.86,3.64,3.64,0,0,0-2.42.73,2.26,2.26,0,0,0-.88,1.79,2,2,0,0,0,.8,1.65A8.06,8.06,0,0,0,115.88,29a9,9,0,0,1,3.19,1.49,2.88,2.88,0,0,1,1.09,2.36,2.92,2.92,0,0,1-1.28,2.48,5.35,5.35,0,0,1-3.23.94,5.82,5.82,0,0,1-3.4-1,3.17,3.17,0,0,1-1.41-2.89l0-.06h1A2.53,2.53,0,0,0,113,34.56a4.71,4.71,0,0,0,2.63.75,4.12,4.12,0,0,0,2.47-.69A2.13,2.13,0,0,0,119.07,32.83Z" style="fill:#1baa4b"/><path d="M124.12,23.71v2.52h2.16v.88h-2.16v6.4a2.1,2.1,0,0,0,.35,1.36,1.19,1.19,0,0,0,.93.41,2.47,2.47,0,0,0,.39,0l.44-.07.16.8a2,2,0,0,1-.54.18,2.79,2.79,0,0,1-.64.07,2,2,0,0,1-1.61-.66,3.07,3.07,0,0,1-.57-2.06v-6.4h-1.7v-.88H123V23.71Z" style="fill:#1baa4b"/><path d="M134.3,34.44A3.39,3.39,0,0,1,133,35.77a3.77,3.77,0,0,1-1.88.46,3,3,0,0,1-2.43-1,5,5,0,0,1-.88-3.27V26.23h1.09v5.7a4.16,4.16,0,0,0,.61,2.57,2.09,2.09,0,0,0,1.74.78,3.22,3.22,0,0,0,1.95-.54,2.93,2.93,0,0,0,1-1.5v-7h1.09V36h-1Z" style="fill:#1baa4b"/><path d="M137,31.21a6.36,6.36,0,0,1,1-3.76A3.19,3.19,0,0,1,140.81,26a3.56,3.56,0,0,1,1.76.43,3.63,3.63,0,0,1,1.26,1.21V21.89h1.08V36H144l-.16-1.43a3.39,3.39,0,0,1-1.27,1.2,3.72,3.72,0,0,1-1.81.42A3.27,3.27,0,0,1,138,34.92a5.66,5.66,0,0,1-1-3.52Zm1.09.19a5,5,0,0,0,.71,2.83A2.43,2.43,0,0,0,141,35.28a3.1,3.1,0,0,0,1.75-.46,3.15,3.15,0,0,0,1.09-1.29V28.87a3.49,3.49,0,0,0-1.06-1.36A2.79,2.79,0,0,0,141,27a2.37,2.37,0,0,0-2.16,1.17,5.76,5.76,0,0,0-.72,3.05Z" style="fill:#1baa4b"/><path d="M150.23,33.38l.35,1.17h0l3-8.32h1.21l-4.26,11.38a5.39,5.39,0,0,1-1,1.69,2.21,2.21,0,0,1-1.78.7,2.85,2.85,0,0,1-.46,0,2.77,2.77,0,0,1-.4-.09l.13-.9.35,0,.35,0a1.41,1.41,0,0,0,1.13-.5,4.34,4.34,0,0,0,.73-1.3l.51-1.32-3.79-9.68h1.21Z" style="fill:#1baa4b"/><path d="M74.08,29.61A9,9,0,0,0,59,24h0a3.32,3.32,0,0,0-5.3-1.57h0C52.3,12.61,44.07,4.29,34.61,4.29A16.61,16.61,0,0,0,23.07,8.51c-.57.5-1.63,1.61-1.63,1.61l-2.82-.3a13.11,13.11,0,0,0-13.44,9,11.1,11.1,0,0,0,.44,8.43c.06.13-.27.06-.27.06A6,6,0,0,0,.74,30C0,31.12-.89,36,2.16,36H17.51c-.17-1.49-.27-2.69-.31-4.45,0-1.16,0-2.31,0-3.47a20.3,20.3,0,0,0,0-3,21.5,21.5,0,0,0-.93-2.81A11.79,11.79,0,0,1,16,17.56a5.82,5.82,0,0,1,.5-2.11c.29-.51,1-.78,1.25-.11.23.5-.37,1.78-.31,3.19A2.54,2.54,0,0,0,20.29,21a3.27,3.27,0,0,1,3.49,2.41c.13.67,1.24,7.29-.62,6.66l0,.31A49.48,49.48,0,0,1,22.79,36h5.62a68.66,68.66,0,0,1-.49-7.41l0-.35c-2.06.7-.83-6.62-.68-7.37a3.17,3.17,0,0,1,3.45-2.67,3.07,3.07,0,0,0,3.18-3.11c.07-1.56-.59-3-.35-3.53.33-.75,1.07-.44,1.39.12a6.68,6.68,0,0,1,.55,2.34,14.53,14.53,0,0,1-.34,5.57,23.12,23.12,0,0,0-1,3.11,22,22,0,0,0,0,3.35c0,1.27,0,2.55,0,3.83A60.23,60.23,0,0,1,33.59,36h4.63a51.92,51.92,0,0,1-.33-5.62l0-.31c-1.87.63-.76-6-.62-6.66A3.26,3.26,0,0,1,40.73,21a2.54,2.54,0,0,0,2.88-2.51c.06-1.41-.54-2.69-.32-3.19.3-.67,1-.4,1.26.11a6.27,6.27,0,0,1,.5,2.11,11.79,11.79,0,0,1-.31,4.73,18.87,18.87,0,0,0-.93,2.81,19,19,0,0,0,0,3c0,1.16,0,2.31,0,3.47,0,1.76-.14,3-.3,4.45H71a2.45,2.45,0,0,0,2.2-1.34A9,9,0,0,0,74.08,29.61ZM20.47,19.93a1.85,1.85,0,1,1,1.84-1.85A1.85,1.85,0,0,1,20.47,19.93Zm10.2-2.8a2,2,0,1,1,2-2A2,2,0,0,1,30.67,17.13Zm9.88,2.8a1.85,1.85,0,1,1,1.84-1.85A1.85,1.85,0,0,1,40.55,19.93Z" style="fill:#095da8"/><path d="M74,19.53V13.76a1,1,0,0,0-1-1H70.81a1,1,0,0,0-1,1V15c0,.56-.53.58-.7.1l-.69-2.59a.28.28,0,0,1,0-.09c.08-.76.22-2.18.26-2.51s.25-1.83.34-2.43h.64c.33,0,1.46,0,1.4-.52a.31.31,0,0,0-.19-.27.45.45,0,0,1-.12-.06c-.14-.12,0-.2.15-.21.29,0,1.37,0,1.23-.54-.08-.28-.43-.42-.69-.46a2.73,2.73,0,0,0-.4,0l-.2,0h0a.09.09,0,0,1,0-.14l.09-.06c.27-.3-.66-.59-.8-.64-.54-.19-1.1-.31-1.66-.46a.19.19,0,0,1-.14-.15.31.31,0,0,1,0-.16c0-.11.46,0,.46-.31s-.2-.23-.33-.26A.23.23,0,0,1,68.21,3a.65.65,0,0,0-.09-.16.93.93,0,0,0-.36-.14l-.24,0c-.15,0-.26-.07-.32-.22a.7.7,0,0,1,0-.32v-2A.18.18,0,0,0,67,0h0a.17.17,0,0,0-.18.15v2a.81.81,0,0,1,0,.31.4.4,0,0,1-.31.24l-.24,0a.88.88,0,0,0-.36.14.33.33,0,0,0-.09.16.25.25,0,0,1-.15.15c-.14,0-.33.11-.33.26s.43.2.45.31a.45.45,0,0,1,0,.16.21.21,0,0,1-.15.15c-.55.15-1.11.27-1.65.46-.14.05-1.08.34-.8.64,0,0,.06,0,.08.06a.08.08,0,0,1,0,.14h0l-.2,0a2.73,2.73,0,0,0-.4,0c-.26,0-.62.18-.69.46-.15.54.93.53,1.23.54.1,0,.29.09.15.21A.52.52,0,0,1,63,6.7a.33.33,0,0,0-.19.27c-.05.54,1.07.52,1.41.52H65c.08.6.28,2.07.33,2.43s.24,2,.3,2.5l0,.33-.78,3.33a.28.28,0,0,1-.29.21h-.12a.28.28,0,0,1-.26-.28V12.07A1.11,1.11,0,0,0,63,11a.28.28,0,0,1-.28-.28V10.4a.82.82,0,0,0-.82-.81H60.81a.81.81,0,0,0-.81.81V16c0,.38-1,.46-1-.09V5.55a.57.57,0,0,0-.84-.43L54.52,7a.48.48,0,0,0-.28.43V10.8a.28.28,0,0,1-.48.2,11.82,11.82,0,0,0-1.3-1.07c-1.79-1.25-2.39-.52-2.25-.34.48.58.12.12.56.68l.36.47c.12.15.23.31.34.46a24.44,24.44,0,0,1,3.71,7.92.28.28,0,0,0,.3.21,3.46,3.46,0,0,1,.46,0,4.94,4.94,0,0,1,3.37,1.33.27.27,0,0,0,.32,0,11.09,11.09,0,0,1,5.47-1.44c.37,0,.74,0,1.1.05A11.08,11.08,0,0,1,73.46,23a.27.27,0,0,0,.48-.18V20.21s0-.3,0-.62C73.94,19.57,74,19.56,74,19.53ZM66.3,12.42s-.07,0-.08,0,0,0,0,0c-.07-.61-.25-2.23-.28-2.55s-.11-1.39-.15-2a.28.28,0,0,1,.28-.3h0a.22.22,0,0,1,.15.06.38.38,0,0,1,.07.25v4.62Zm1.75-2.59c0,.27-.17,1.76-.25,2.56,0,0,0,0,0,0s-.12.06-.12,0V7.81h0a.38.38,0,0,1,.07-.25.23.23,0,0,1,.16-.06h0a.27.27,0,0,1,.27.3C68.15,8.44,68.07,9.55,68.05,9.83Z" style="fill:#095da8"/></svg>